<svg width="24" height="24" viewBox="0 0 24 24" fill="none" xmlns="http://www.w3.org/2000/svg">
<g clip-path="url(#clip0_455_10823)">
<path d="M20.5 0.305176H3.5C2.57457 0.314294 1.68962 0.685971 1.03521 1.34038C0.380795 1.99479 0.00911822 2.87974 0 3.80518L0 16.8052C0.0352283 17.7622 0.374824 18.6829 0.969399 19.4336C1.56397 20.1843 2.38252 20.7257 3.306 20.9792L14.465 23.6002C14.8897 23.7101 15.3337 23.7233 15.7641 23.6386C16.1946 23.554 16.6005 23.3737 16.952 23.1112C17.2919 22.8329 17.5632 22.4802 17.7449 22.0804C17.9266 21.6805 18.0139 21.2442 18 20.8052V11.1132C17.9984 10.1831 17.6927 9.27912 17.1296 8.53892C16.5665 7.79872 15.7769 7.26292 14.881 7.01318L4.056 4.02818C3.96105 4.00191 3.87221 3.9572 3.79454 3.8966C3.71688 3.836 3.65191 3.7607 3.60334 3.67499C3.55478 3.58928 3.52357 3.49485 3.5115 3.39708C3.49943 3.29931 3.50674 3.20012 3.533 3.10518C3.55926 3.01023 3.60397 2.92139 3.66457 2.84372C3.72517 2.76605 3.80047 2.70108 3.88618 2.65252C3.97189 2.60395 4.06633 2.57274 4.1641 2.56067C4.26187 2.54861 4.36105 2.55591 4.456 2.58218L7.99 3.55718H8.002H20.5C20.6989 3.55718 20.8897 3.63619 21.0303 3.77685C21.171 3.9175 21.25 4.10826 21.25 4.30718C21.25 4.50609 21.171 4.69685 21.0303 4.83751C20.8897 4.97816 20.6989 5.05718 20.5 5.05718H15.265C15.2045 5.05705 15.1459 5.07889 15.1003 5.11865C15.0546 5.15842 15.025 5.21339 15.0168 5.27337C15.0086 5.33336 15.0224 5.39427 15.0558 5.44481C15.0891 5.49535 15.1396 5.53208 15.198 5.54818L15.284 5.57218C16.4232 5.88856 17.4364 6.55025 18.184 7.46618C18.2078 7.49456 18.2374 7.51742 18.2709 7.53314C18.3044 7.54885 18.341 7.55706 18.378 7.55718H20.5C20.6989 7.55718 20.8897 7.63619 21.0303 7.77685C21.171 7.9175 21.25 8.10826 21.25 8.30718C21.25 8.50609 21.171 8.69685 21.0303 8.83751C20.8897 8.97816 20.6989 9.05718 20.5 9.05718H19.462C19.4225 9.05693 19.3835 9.0661 19.3482 9.08392C19.3129 9.10173 19.2824 9.12769 19.2591 9.15964C19.2359 9.1916 19.2206 9.22862 19.2145 9.26767C19.2084 9.30671 19.2116 9.34665 19.224 9.38418C19.4078 9.94287 19.5027 10.527 19.505 11.1152V18.0572C19.505 18.1235 19.5313 18.1871 19.5782 18.234C19.6251 18.2808 19.6887 18.3072 19.755 18.3072H20.5C21.4283 18.3072 22.3185 17.9384 22.9749 17.282C23.6313 16.6257 24 15.7354 24 14.8072V3.80718C24.0003 3.34738 23.9099 2.89204 23.7342 2.46717C23.5584 2.0423 23.3006 1.65623 22.9756 1.33101C22.6505 1.00579 22.2646 0.747805 21.8399 0.571789C21.4151 0.395772 20.9598 0.305176 20.5 0.305176ZM15.5 15.3052C15.5 15.7007 15.3827 16.0874 15.1629 16.4163C14.9432 16.7452 14.6308 17.0016 14.2654 17.1529C13.8999 17.3043 13.4978 17.3439 13.1098 17.2667C12.7219 17.1896 12.3655 16.9991 12.0858 16.7194C11.8061 16.4397 11.6156 16.0833 11.5384 15.6954C11.4613 15.3074 11.5009 14.9053 11.6522 14.5398C11.8036 14.1744 12.06 13.862 12.3889 13.6422C12.7178 13.4225 13.1044 13.3052 13.5 13.3052C14.0304 13.3052 14.5391 13.5159 14.9142 13.891C15.2893 14.266 15.5 14.7747 15.5 15.3052Z" fill="black"/>
</g>
<defs>
<clipPath id="clip0_455_10823">
<rect width="24" height="24" fill="white"/>
</clipPath>
</defs>
</svg>
