<svg width="24" height="24" viewBox="0 0 24 24" fill="none" xmlns="http://www.w3.org/2000/svg">
<g clip-path="url(#clip0_455_10845)">
<path d="M11.9459 2.29053C7.48043 2.29053 3.58943 4.84653 2.46593 8.47803H1.64093C1.42225 8.47827 1.20626 8.52632 1.0081 8.61882C0.809942 8.71132 0.634406 8.84603 0.493789 9.01351C0.353173 9.181 0.250878 9.3772 0.194071 9.58838C0.137264 9.79956 0.127319 10.0206 0.164933 10.236L0.545933 12.426C0.636729 12.9481 0.908895 13.4214 1.31447 13.7625C1.72004 14.1036 2.233 14.2906 2.76293 14.2905H3.15743C3.60743 15.06 4.18943 15.7575 4.87493 16.3635L3.78143 20.079C3.74855 20.1909 3.74221 20.3089 3.7629 20.4236C3.7836 20.5384 3.83076 20.6467 3.90066 20.7401C3.97055 20.8334 4.06124 20.9092 4.16553 20.9613C4.26982 21.0135 4.38483 21.0406 4.50143 21.0405H7.50143C7.65618 21.0405 7.80715 20.9927 7.93364 20.9035C8.06013 20.8144 8.15594 20.6883 8.20793 20.5425L8.93093 18.516C9.88343 18.7755 10.8959 18.9165 11.9474 18.9165C13.0079 18.9165 14.0294 18.774 14.9894 18.5085L15.8039 20.5665C15.8593 20.7064 15.9554 20.8263 16.0798 20.9108C16.2041 20.9954 16.3511 21.0406 16.5014 21.0405H19.5014C19.6185 21.0404 19.7338 21.0129 19.8383 20.9602C19.9428 20.9075 20.0336 20.8311 20.1032 20.7371C20.1729 20.6431 20.2196 20.534 20.2396 20.4187C20.2596 20.3034 20.2524 20.185 20.2184 20.073L19.0769 16.314C20.7149 14.8425 21.7499 12.8385 21.7499 10.6035C21.7499 10.386 21.7394 10.1685 21.7199 9.95703C22.1114 9.79203 22.4819 9.55803 22.7774 9.29103C23.2499 9.75003 23.9999 9.75003 23.9999 8.66553C23.9999 9.00003 23.2499 9.00003 23.3084 8.62653C23.3714 8.50612 23.4169 8.37731 23.4434 8.24403C23.4787 8.07029 23.4694 7.89046 23.4164 7.72128C23.3635 7.55211 23.2685 7.3991 23.1404 7.27653C23.0054 7.1373 22.8276 7.04721 22.6355 7.02058C22.4433 6.99395 22.2478 7.03229 22.0799 7.12953C21.9256 7.21482 21.794 7.33588 21.6961 7.48256C21.5982 7.62925 21.5369 7.79727 21.5174 7.97253C21.4814 8.33703 21.6404 8.69253 21.9974 8.95353C21.8736 9.03916 21.7437 9.11586 21.6089 9.18303C20.8079 5.18703 16.6829 2.29053 11.9459 2.29053ZM22.7054 8.10453C22.6787 8.21856 22.6287 8.32581 22.5584 8.41953C22.536 8.40782 22.514 8.39531 22.4924 8.38203C22.2734 8.24703 22.2569 8.11953 22.2644 8.04753C22.2718 7.99371 22.2915 7.94231 22.3219 7.89731C22.3524 7.85231 22.3927 7.81492 22.4399 7.78803C22.5134 7.74753 22.5599 7.75653 22.6094 7.80603C22.6511 7.8423 22.6821 7.88928 22.699 7.94189C22.716 7.99451 22.7182 8.05075 22.7054 8.10453ZM9.20693 7.12953C9.11084 7.16213 9.00914 7.1749 8.90797 7.16706C8.80681 7.15921 8.70829 7.13092 8.61837 7.0839C8.52845 7.03688 8.44902 6.9721 8.38486 6.89348C8.32071 6.81487 8.27318 6.72405 8.24514 6.62653C8.2171 6.52901 8.20915 6.42682 8.22175 6.32613C8.23435 6.22545 8.26726 6.12837 8.31847 6.04077C8.36968 5.95318 8.43814 5.87688 8.51969 5.81651C8.60124 5.75613 8.6942 5.71293 8.79293 5.68953C9.81826 5.39653 10.8796 5.24859 11.9459 5.25003C13.0904 5.25003 14.1914 5.41503 15.2159 5.72253C15.3103 5.75079 15.3982 5.79737 15.4745 5.85959C15.5509 5.92182 15.6142 5.99847 15.6609 6.08518C15.7077 6.17188 15.7369 6.26694 15.7469 6.36493C15.7569 6.46292 15.7474 6.56192 15.7192 6.65628C15.6909 6.75063 15.6443 6.8385 15.5821 6.91485C15.5199 6.99121 15.4432 7.05456 15.3565 7.10129C15.2698 7.14802 15.1748 7.17721 15.0768 7.18721C14.9788 7.1972 14.8798 7.18779 14.7854 7.15953C13.8638 6.88592 12.9073 6.74798 11.9459 6.75003C10.9859 6.75003 10.0634 6.88503 9.20693 7.13103V7.12953ZM7.49993 9.37503C7.49993 9.6734 7.38141 9.95954 7.17043 10.1705C6.95945 10.3815 6.6733 10.5 6.37493 10.5C6.07656 10.5 5.79042 10.3815 5.57944 10.1705C5.36846 9.95954 5.24993 9.6734 5.24993 9.37503C5.24993 9.07666 5.36846 8.79051 5.57944 8.57953C5.79042 8.36855 6.07656 8.25003 6.37493 8.25003C6.6733 8.25003 6.95945 8.36855 7.17043 8.57953C7.38141 8.79051 7.49993 9.07666 7.49993 9.37503Z" fill="#7E0808"/>
</g>
<defs>
<clipPath id="clip0_455_10845">
<rect width="24" height="24" fill="white"/>
</clipPath>
</defs>
</svg>
