<svg width="24" height="25" viewBox="0 0 24 25" fill="none" xmlns="http://www.w3.org/2000/svg">
<path d="M12 0.5C5.34545 0.5 0 5.84545 0 12.5C0 19.1545 5.34545 24.5 12 24.5C18.6545 24.5 24 19.1545 24 12.5C24 5.84545 18.6545 0.5 12 0.5ZM17.4545 14.6818H14.1818V17.9545C14.1818 19.1545 13.2 20.1364 12 20.1364C10.8 20.1364 9.81818 19.1545 9.81818 17.9545V14.6818H6.54545C5.34545 14.6818 4.36364 13.7 4.36364 12.5C4.36364 11.3 5.34545 10.3182 6.54545 10.3182H9.81818V7.04545C9.81818 5.84545 10.8 4.86364 12 4.86364C13.2 4.86364 14.1818 5.84545 14.1818 7.04545V10.3182H17.4545C18.6545 10.3182 19.6364 11.3 19.6364 12.5C19.6364 13.7 18.6545 14.6818 17.4545 14.6818Z" fill="white"/>
</svg>
