<svg width="18" height="18" viewBox="0 0 18 18" fill="none" xmlns="http://www.w3.org/2000/svg">
<path d="M9 0C4.00909 0 0 4.00909 0 9C0 13.9909 4.00909 18 9 18C13.9909 18 18 13.9909 18 9C18 4.00909 13.9909 0 9 0ZM13.0909 10.6364H10.6364V13.0909C10.6364 13.9909 9.9 14.7273 9 14.7273C8.1 14.7273 7.36364 13.9909 7.36364 13.0909V10.6364H4.90909C4.00909 10.6364 3.27273 9.9 3.27273 9C3.27273 8.1 4.00909 7.36364 4.90909 7.36364H7.36364V4.90909C7.36364 4.00909 8.1 3.27273 9 3.27273C9.9 3.27273 10.6364 4.00909 10.6364 4.90909V7.36364H13.0909C13.9909 7.36364 14.7273 8.1 14.7273 9C14.7273 9.9 13.9909 10.6364 13.0909 10.6364Z" fill="#6A6A6A"/>
</svg>
