<svg width="18" height="18" viewBox="0 0 18 18" fill="none" xmlns="http://www.w3.org/2000/svg">
<path d="M13.4999 3.00024C13.4999 2.17525 12.8249 1.50025 11.9999 1.50025C11.1749 1.50025 10.4999 2.17525 10.4999 3.00024H7.49988C7.49988 2.17525 6.82488 1.50025 5.99988 1.50025C5.17488 1.50025 4.49988 2.17525 4.49988 3.00024C2.84988 3.00024 1.49988 4.35024 1.49988 6.00024V13.5002C1.49988 15.1502 2.84988 16.5002 4.49988 16.5002H13.4999C15.1499 16.5002 16.4999 15.1502 16.4999 13.5002V6.00024C16.4999 4.35024 15.1499 3.00024 13.4999 3.00024ZM14.4999 13.5002C14.4999 13.9502 13.9499 14.5002 13.4999 14.5002H4.49988C4.04988 14.5002 3.49988 13.9502 3.49988 13.5002V8.50024C3.49988 8.05024 4.04988 7.50024 4.49988 7.50024L13.4999 7.50024C13.9499 7.50024 14.4999 8.05024 14.4999 8.50024V13.5002Z" fill="#6A6A6A"/>
<path d="M6.99988 9.00024H5.99988C5.44988 9.00024 4.99988 9.45024 4.99988 10.0002V11.0002C4.99988 11.5502 5.44988 12.0002 5.99988 12.0002H6.99988C7.54988 12.0002 7.99988 11.5502 7.99988 11.0002V10.0002C7.99988 9.45024 7.54988 9.00024 6.99988 9.00024Z" fill="#6A6A6A"/>
</svg>
