<svg width="18" height="18" viewBox="0 0 18 18" fill="none" xmlns="http://www.w3.org/2000/svg">
<path d="M17.8594 15.1241L13.8844 11.0976C14.5313 9.96787 14.8688 8.71162 14.8688 7.446C14.8688 3.33975 11.5312 -0.00244141 7.43438 -0.00244141C3.3375 -0.00244141 0 3.33975 0 7.446C0 11.5522 3.3375 14.8944 7.43438 14.8944C8.74219 14.8944 10.0359 14.5335 11.1891 13.8444L15.1453 17.8569C15.2344 17.946 15.3609 18.0022 15.4875 18.0022C15.6141 18.0022 15.7406 17.9507 15.8297 17.8569L17.8594 15.8038C18.0469 15.6116 18.0469 15.3116 17.8594 15.1241ZM7.43438 2.89912C9.9375 2.89912 11.9719 4.93818 11.9719 7.446C11.9719 9.95381 9.9375 11.9929 7.43438 11.9929C4.93125 11.9929 2.89688 9.95381 2.89688 7.446C2.89688 4.93818 4.93125 2.89912 7.43438 2.89912Z" fill="#6A6A6A"/>
</svg>
