<svg width="18" height="16" viewBox="0 0 18 16" fill="none" xmlns="http://www.w3.org/2000/svg">
<path d="M3.75024 12.5002H2.25024C1.42524 12.5002 0.750244 13.1752 0.750244 14.0002C0.750244 14.8252 1.42524 15.5002 2.25024 15.5002H3.75024C4.57524 15.5002 5.25024 14.8252 5.25024 14.0002C5.25024 13.1752 4.57524 12.5002 3.75024 12.5002Z" fill="#6A6A6A"/>
<path d="M9.75012 11H8.25012C7.42512 11 6.75012 11.675 6.75012 12.5V14C6.75012 14.825 7.42512 15.5 8.25012 15.5H9.75012C10.5751 15.5 11.2501 14.825 11.2501 14V12.5C11.2501 11.675 10.5751 11 9.75012 11Z" fill="#6A6A6A"/>
<path d="M15.75 8.00024H14.25C13.425 8.00024 12.75 8.67524 12.75 9.50024V14.0002C12.75 14.8252 13.425 15.5002 14.25 15.5002H15.75C16.575 15.5002 17.25 14.8252 17.25 14.0002V9.50024C17.25 8.67524 16.575 8.00024 15.75 8.00024Z" fill="#6A6A6A"/>
<path d="M16.5001 0.500244H11.5501C10.8751 0.500244 10.5751 1.32524 11.0251 1.77524L12.4501 3.20024C9.67512 6.35024 5.70012 8.75024 1.50012 8.75024C1.05012 8.75024 0.750122 9.05024 0.750122 9.50024C0.750122 9.95024 1.05012 10.2502 1.50012 10.2502C6.52512 10.2502 11.1751 8.82524 14.5501 5.30024L15.9001 6.65024C16.3501 7.10024 17.1751 6.80024 17.1751 6.12524V1.25024C17.2501 0.800244 16.9501 0.500244 16.5001 0.500244Z" fill="#6A6A6A"/>
</svg>
